<?xml version="1.0" encoding="UTF-8" standalone="no"?>
<!DOCTYPE svg PUBLIC "-//W3C//DTD SVG 1.1//EN" "http://www.w3.org/Graphics/SVG/1.1/DTD/svg11.dtd">
<svg width="100%" height="100%" viewBox="0 0 19205 19205" version="1.1" xmlns="http://www.w3.org/2000/svg" xmlns:xlink="http://www.w3.org/1999/xlink" xml:space="preserve" xmlns:serif="http://www.serif.com/" style="fill-rule:evenodd;clip-rule:evenodd;stroke-linecap:round;stroke-linejoin:round;stroke-miterlimit:1.5;">
    <g transform="matrix(4.16667,0,0,4.16667,0,0)">
        <rect id="LOGO14" x="1.346" y="1.812" width="4606.3" height="4606.3" style="fill:none;"/>
        <g transform="matrix(1,0,0,1,-2.0665,-77.106)">
            <path d="M2202.4,200.985C2266.86,163.77 2346.27,163.77 2410.73,200.985C2747.72,395.546 3805.96,1006.52 4142.95,1201.09C4207.41,1238.3 4247.12,1307.08 4247.12,1381.51L4247.12,3381.71C4247.12,3456.14 4207.41,3524.91 4142.95,3562.13C3805.96,3756.69 2747.72,4367.66 2410.73,4562.23C2346.27,4599.44 2266.86,4599.44 2202.4,4562.23C1865.41,4367.67 807.17,3756.69 470.18,3562.13C405.721,3524.91 366.014,3456.14 366.014,3381.71L366.014,1381.51C366.014,1307.08 405.721,1238.3 470.18,1201.09C807.169,1006.52 1865.41,395.548 2202.4,200.985Z" style="fill:rgb(243,181,56);"/>
        </g>
        <g transform="matrix(1,0,0,1,-2.0665,-77.106)">
            <path d="M2495.54,1830.33C2753.9,1981.02 2763.7,2444.3 2517.41,2864.25C2271.12,3284.2 1861.41,3502.8 1603.05,3352.11C1344.69,3201.42 1334.89,2738.13 1581.18,2318.19C1827.47,1898.24 2237.18,1679.64 2495.54,1830.33Z" style="fill:none;stroke:rgb(51,51,51);stroke-width:95.83px;"/>
        </g>
        <g transform="matrix(1,0,0,1,-2.0665,-77.106)">
            <path d="M2135.75,1814.06C2397.14,1668.66 2802.29,1895.55 3039.94,2320.42C3277.59,2745.28 3258.32,3208.27 2996.93,3353.68C2735.54,3499.08 2330.38,3272.19 2092.74,2847.32C1855.09,2422.45 1874.36,1959.46 2135.75,1814.06Z" style="fill:none;stroke:rgb(51,51,51);stroke-width:95.83px;"/>
        </g>
        <g transform="matrix(1,0,0,1,-2.0665,-77.106)">
            <path d="M2655.47,2087.66L1927.45,2083.22L1926.46,2245.47L2654.47,2249.91L2655.47,2087.66Z" style="fill:rgb(51,51,51);"/>
        </g>
        <g transform="matrix(0.895298,0,0,1,235.622,-77.106)">
            <path d="M2671.08,2513.89L1943.06,2509.45L1942.07,2671.7L2670.08,2676.14L2671.08,2513.89Z" style="fill:rgb(51,51,51);"/>
        </g>
        <g transform="matrix(1,0,0,1,-2.0665,-77.106)">
            <path d="M1756.92,1265.54C1756.92,1265.54 2014.88,1349.09 2095.82,1643.97" style="fill:none;stroke:rgb(51,51,51);stroke-width:104.17px;"/>
        </g>
        <g transform="matrix(1,0,0,1,-2.0665,-77.106)">
            <path d="M2865.36,1265.54C2865.36,1265.54 2607.4,1349.09 2526.46,1643.97" style="fill:none;stroke:rgb(51,51,51);stroke-width:104.17px;"/>
        </g>
        <g transform="matrix(1,0,0,1,-2.0665,-77.106)">
            <path d="M958.581,1967.44C958.581,2154.32 903.864,2281.43 794.43,2348.78C903.864,2417.8 958.581,2545.76 958.581,2732.64L958.581,3083.67C958.581,3198.15 982.993,3279.39 1031.82,3327.37C1080.64,3375.35 1161.45,3399.34 1274.26,3399.34L1274.26,3533.19C1122.73,3533.19 1010.35,3496.15 937.115,3422.07C863.879,3347.99 827.26,3235.19 827.26,3083.67L827.26,2732.64C827.26,2618.15 803.269,2536.92 755.286,2488.93C707.304,2440.95 626.07,2416.96 511.585,2416.96L511.585,2283.12C626.07,2283.12 707.304,2258.7 755.286,2209.88C803.269,2161.05 827.26,2080.24 827.26,1967.44L827.26,1679.54C827.26,1528.02 863.879,1415.22 937.115,1341.14C1010.35,1267.06 1122.73,1230.02 1274.26,1230.02L1274.26,1363.87C1161.45,1363.87 1080.64,1387.86 1031.82,1435.84C982.993,1483.83 958.581,1565.06 958.581,1679.54L958.581,1967.44Z" style="fill:rgb(51,51,51);fill-rule:nonzero;"/>
        </g>
        <g transform="matrix(1,0,0,1,-2.0665,-77.106)">
            <path d="M3663.7,1967.44C3663.7,2154.32 3718.42,2281.43 3827.85,2348.78C3718.42,2417.8 3663.7,2545.76 3663.7,2732.64L3663.7,3083.67C3663.7,3198.15 3639.29,3279.39 3590.46,3327.37C3541.64,3375.35 3460.83,3399.34 3348.03,3399.34L3348.03,3533.19C3499.55,3533.19 3611.93,3496.15 3685.17,3422.07C3758.4,3347.99 3795.02,3235.19 3795.02,3083.67L3795.02,2732.64C3795.02,2618.15 3819.01,2536.92 3866.99,2488.93C3914.98,2440.95 3996.21,2416.96 4110.7,2416.96L4110.7,2283.12C3996.21,2283.12 3914.98,2258.7 3866.99,2209.88C3819.01,2161.05 3795.02,2080.24 3795.02,1967.44L3795.02,1679.54C3795.02,1528.02 3758.4,1415.22 3685.17,1341.14C3611.93,1267.06 3499.55,1230.02 3348.03,1230.02L3348.03,1363.87C3460.83,1363.87 3541.64,1387.86 3590.46,1435.84C3639.29,1483.83 3663.7,1565.06 3663.7,1679.54L3663.7,1967.44Z" style="fill:rgb(51,51,51);fill-rule:nonzero;"/>
        </g>
    </g>
</svg>
