<?xml version="1.0" standalone="no"?>
<svg xmlns:xlink="http://www.w3.org/1999/xlink" id="wave" style="transform:rotate(180deg); transition: 0.3s"
     viewBox="0 0 1440 490" preserveAspectRatio="none" version="1.1" xmlns="http://www.w3.org/2000/svg">
    <defs>
        <linearGradient id="sw-gradient-0" x1="0" x2="0" y1="1" y2="0">
            <stop stop-color="rgba(134, 181, 115, 0.6)" offset="0%"/>
            <stop stop-color="rgba(134, 181, 115, 0.6)" offset="100%"/>
        </linearGradient>
    </defs>
    <path style="transform:translate(0, 0px); opacity:1" fill="url(#sw-gradient-0)"
          d="M0,294L80,261.3C160,229,320,163,480,147C640,131,800,163,960,220.5C1120,278,1280,359,1440,383.8C1600,408,1760,376,1920,318.5C2080,261,2240,180,2400,147C2560,114,2720,131,2880,163.3C3040,196,3200,245,3360,294C3520,343,3680,392,3840,416.5C4000,441,4160,441,4320,432.8C4480,425,4640,408,4800,334.8C4960,261,5120,131,5280,130.7C5440,131,5600,261,5760,261.3C5920,261,6080,131,6240,98C6400,65,6560,131,6720,179.7C6880,229,7040,261,7200,228.7C7360,196,7520,98,7680,73.5C7840,49,8000,98,8160,171.5C8320,245,8480,343,8640,392C8800,441,8960,441,9120,383.8C9280,327,9440,212,9600,147C9760,82,9920,65,10080,114.3C10240,163,10400,278,10560,318.5C10720,359,10880,327,11040,334.8C11200,343,11360,392,11440,416.5L11520,441L11520,490L11440,490C11360,490,11200,490,11040,490C10880,490,10720,490,10560,490C10400,490,10240,490,10080,490C9920,490,9760,490,9600,490C9440,490,9280,490,9120,490C8960,490,8800,490,8640,490C8480,490,8320,490,8160,490C8000,490,7840,490,7680,490C7520,490,7360,490,7200,490C7040,490,6880,490,6720,490C6560,490,6400,490,6240,490C6080,490,5920,490,5760,490C5600,490,5440,490,5280,490C5120,490,4960,490,4800,490C4640,490,4480,490,4320,490C4160,490,4000,490,3840,490C3680,490,3520,490,3360,490C3200,490,3040,490,2880,490C2720,490,2560,490,2400,490C2240,490,2080,490,1920,490C1760,490,1600,490,1440,490C1280,490,1120,490,960,490C800,490,640,490,480,490C320,490,160,490,80,490L0,490Z"/>
    <defs>
        <linearGradient id="sw-gradient-1" x1="0" x2="0" y1="1" y2="0">
            <stop stop-color="rgba(134, 181, 115, 0.5)" offset="0%"/>
            <stop stop-color="rgba(134, 181, 115, 0.5)" offset="100%"/>
        </linearGradient>
    </defs>
    <path style="transform:translate(0, 50px); opacity:0.9" fill="url(#sw-gradient-1)"
          d="M0,294L80,285.8C160,278,320,261,480,261.3C640,261,800,278,960,269.5C1120,261,1280,229,1440,236.8C1600,245,1760,294,1920,294C2080,294,2240,245,2400,236.8C2560,229,2720,261,2880,285.8C3040,310,3200,327,3360,318.5C3520,310,3680,278,3840,294C4000,310,4160,376,4320,400.2C4480,425,4640,408,4800,400.2C4960,392,5120,392,5280,351.2C5440,310,5600,229,5760,236.8C5920,245,6080,343,6240,392C6400,441,6560,441,6720,432.8C6880,425,7040,408,7200,359.3C7360,310,7520,229,7680,236.8C7840,245,8000,343,8160,343C8320,343,8480,245,8640,212.3C8800,180,8960,212,9120,196C9280,180,9440,114,9600,130.7C9760,147,9920,245,10080,236.8C10240,229,10400,114,10560,81.7C10720,49,10880,98,11040,130.7C11200,163,11360,180,11440,187.8L11520,196L11520,490L11440,490C11360,490,11200,490,11040,490C10880,490,10720,490,10560,490C10400,490,10240,490,10080,490C9920,490,9760,490,9600,490C9440,490,9280,490,9120,490C8960,490,8800,490,8640,490C8480,490,8320,490,8160,490C8000,490,7840,490,7680,490C7520,490,7360,490,7200,490C7040,490,6880,490,6720,490C6560,490,6400,490,6240,490C6080,490,5920,490,5760,490C5600,490,5440,490,5280,490C5120,490,4960,490,4800,490C4640,490,4480,490,4320,490C4160,490,4000,490,3840,490C3680,490,3520,490,3360,490C3200,490,3040,490,2880,490C2720,490,2560,490,2400,490C2240,490,2080,490,1920,490C1760,490,1600,490,1440,490C1280,490,1120,490,960,490C800,490,640,490,480,490C320,490,160,490,80,490L0,490Z"/>
    <defs>
        <linearGradient id="sw-gradient-2" x1="0" x2="0" y1="1" y2="0">
            <stop stop-color="rgba(134, 181, 115, 0.7)" offset="0%"/>
            <stop stop-color="rgba(134, 181, 115, 0.7)" offset="100%"/>
        </linearGradient>
    </defs>
    <path style="transform:translate(0, 100px); opacity:0.8" fill="url(#sw-gradient-2)"
          d="M0,343L80,302.2C160,261,320,180,480,122.5C640,65,800,33,960,89.8C1120,147,1280,294,1440,294C1600,294,1760,147,1920,138.8C2080,131,2240,261,2400,269.5C2560,278,2720,163,2880,147C3040,131,3200,212,3360,277.7C3520,343,3680,392,3840,408.3C4000,425,4160,408,4320,383.8C4480,359,4640,327,4800,277.7C4960,229,5120,163,5280,147C5440,131,5600,163,5760,204.2C5920,245,6080,294,6240,294C6400,294,6560,245,6720,261.3C6880,278,7040,359,7200,400.2C7360,441,7520,441,7680,383.8C7840,327,8000,212,8160,147C8320,82,8480,65,8640,114.3C8800,163,8960,278,9120,302.2C9280,327,9440,261,9600,212.3C9760,163,9920,131,10080,98C10240,65,10400,33,10560,57.2C10720,82,10880,163,11040,187.8C11200,212,11360,180,11440,163.3L11520,147L11520,490L11440,490C11360,490,11200,490,11040,490C10880,490,10720,490,10560,490C10400,490,10240,490,10080,490C9920,490,9760,490,9600,490C9440,490,9280,490,9120,490C8960,490,8800,490,8640,490C8480,490,8320,490,8160,490C8000,490,7840,490,7680,490C7520,490,7360,490,7200,490C7040,490,6880,490,6720,490C6560,490,6400,490,6240,490C6080,490,5920,490,5760,490C5600,490,5440,490,5280,490C5120,490,4960,490,4800,490C4640,490,4480,490,4320,490C4160,490,4000,490,3840,490C3680,490,3520,490,3360,490C3200,490,3040,490,2880,490C2720,490,2560,490,2400,490C2240,490,2080,490,1920,490C1760,490,1600,490,1440,490C1280,490,1120,490,960,490C800,490,640,490,480,490C320,490,160,490,80,490L0,490Z"/>
</svg>