<svg xmlns:xlink="http://www.w3.org/1999/xlink" width="45" xmlns="http://www.w3.org/2000/svg" height="46.19" id="screenshot-5254e4e6-e41f-80a9-8002-7274c1e3b10b" viewBox="1447.863 3752.801 45 46.19" style="-webkit-print-color-adjust: exact;" fill="none" version="1.1"><g id="shape-5254e4e6-e41f-80a9-8002-7274c1e3b10b"><g class="fills" id="fills-5254e4e6-e41f-80a9-8002-7274c1e3b10b"><path rx="0" ry="0" d="M1448.446,3781.123C1448.064,3779.370,1447.863,3777.597,1447.863,3775.823C1447.863,3763.111,1457.888,3752.801,1470.273,3752.801C1471.940,3752.801,1473.618,3753.007,1475.225,3753.368C1462.830,3758.213,1453.076,3768.369,1448.446,3781.123ZZM1487.911,3761.616C1486.535,3759.812,1484.928,3758.244,1483.110,3756.945C1468.083,3761.513,1456.361,3773.658,1452.002,3789.113C1453.257,3790.979,1454.814,3792.784,1456.542,3794.165C1460.871,3778.566,1472.734,3766.152,1487.911,3761.616ZZM1489.498,3787.670C1491.025,3785.082,1492.050,3782.133,1492.461,3779.133C1484.486,3783.556,1477.897,3790.536,1473.618,3798.753C1476.631,3798.300,1479.534,3797.176,1482.116,3795.526C1485.631,3796.877,1489.237,3798.032,1492.863,3798.990C1491.929,3795.227,1490.814,3791.309,1489.498,3787.670ZZM1492.482,3772.668C1492.220,3770.658,1491.688,3768.678,1490.895,3766.812C1477.043,3771.534,1466.145,3782.958,1461.634,3797.238C1463.453,3798.021,1465.351,3798.527,1467.320,3798.805C1471.970,3787.041,1481.061,3777.483,1492.482,3772.668ZZ"/></g></g></svg>